<svg width="476" height="555" viewBox="0 0 476 555" fill="none" xmlns="http://www.w3.org/2000/svg">
<path d="M236.261 6.91505C238.311 6.7219 242.375 6.73308 245.289 6.94825C248.204 7.16349 252.369 7.85127 254.538 8.4795C258.455 9.61166 258.52 9.6143 262.499 8.68263C265.671 7.93909 267.566 7.82507 271.544 8.15724C274.5 8.4003 278.097 9.09352 280.258 9.83302C282.282 10.5314 285.819 12.1087 288.118 13.3408C290.418 14.5732 293.816 16.7471 295.675 18.168C297.533 19.5887 300.344 21.4795 301.921 22.377C303.498 23.2689 305.844 24.7687 307.133 25.7051C308.422 26.647 311.095 29.0488 313.079 31.0469C315.064 33.0452 317.932 36.5993 319.454 38.9502C320.977 41.301 322.814 44.6765 323.541 46.4512C324.263 48.2255 325.141 50.6424 325.488 51.8213C325.83 52.9999 326.846 55.0645 327.745 56.4033C328.645 57.7422 329.941 60.0551 330.624 61.5361C331.307 63.0174 332.415 65.9188 333.086 67.9834C333.757 70.0485 334.632 74.1386 335.022 77.0713C335.417 80.0042 336.027 83.8471 336.378 85.6104C336.734 87.374 337.073 92.0425 337.129 95.9902C337.185 99.9379 337.326 104.244 337.629 107.955L341.683 109.336C343.912 110.093 347.376 110.915 349.376 111.161C352.497 111.542 353.075 111.777 353.442 112.813C353.677 113.478 353.858 114.558 353.844 115.216C353.829 116.059 353.258 116.669 351.923 117.282C350.049 118.145 350.03 118.192 350.202 120.948C350.294 122.486 350.472 125.418 350.596 127.467C350.715 129.515 350.529 132.499 350.19 134.093C349.608 136.826 349.652 137.121 350.966 139.162C351.737 140.354 354.008 144.364 356.021 148.078C358.028 151.787 360.849 157.374 362.29 160.482C363.731 163.59 365.689 168.43 366.641 171.236C367.592 174.043 369.575 181.39 371.041 187.568C373.262 196.892 373.661 199.344 373.396 201.98C373.196 204.014 372.471 206.382 371.386 208.559C370.453 210.427 367.083 216.184 363.9 221.346C360.712 226.508 356.021 234.132 353.479 238.294C350.233 243.602 349.047 245.968 349.501 246.231C349.86 246.44 354.171 247.844 359.089 249.346C364.01 250.854 375.382 254.186 384.36 256.751C393.338 259.321 403.523 262.379 406.994 263.546C410.464 264.713 415.663 266.67 418.548 267.894C421.432 269.117 425.788 271.409 428.221 272.985C430.654 274.562 434.048 277.028 435.758 278.466C437.467 279.903 439.994 282.406 441.369 284.02C442.744 285.633 444.801 288.42 445.932 290.207C447.068 291.994 448.939 295.635 450.091 298.299C451.248 300.963 452.734 305.427 453.388 308.225C454.047 311.022 454.975 316.186 455.453 319.706C455.926 323.226 456.788 331.14 457.357 337.291C457.931 343.442 458.783 351.471 459.246 355.14C459.715 358.803 461.127 367.811 464.69 388.499L463.219 391.51C462.314 393.346 460.628 395.516 458.876 397.088C457.299 398.496 454.671 400.525 450.051 403.535L448.432 418.854C447.541 427.276 446.469 436.789 446.043 439.989C445.617 443.19 444.684 449.498 443.964 454.001C443.244 458.504 442.091 465.046 441.401 468.53C440.712 472.015 439.319 478.071 438.304 481.981C437.288 485.892 435.432 491.812 434.174 495.136C432.921 498.46 430.278 504.234 428.302 507.972C426.33 511.71 423.17 516.989 421.282 519.71C419.4 522.431 416.218 526.493 414.217 528.738C412.211 530.988 408.86 534.123 406.768 535.706C404.676 537.284 401.264 539.465 399.187 540.55C397.109 541.629 393.604 543.027 391.392 543.646C388.944 544.331 385.396 544.824 382.324 544.907C378.934 544.996 376.061 544.756 373.583 544.161C370.588 543.45 367.68 543.298 358.203 543.374C351.775 543.425 337.307 543.596 326.06 543.751C314.811 543.906 299.633 543.856 292.336 543.637C281.591 543.313 278.115 543.023 274.059 542.104C270.477 541.29 265.98 540.826 247.566 539.975L246.511 541.668C245.936 542.601 244.769 543.623 243.92 543.938C242.915 544.316 234.464 544.482 219.548 544.421C206.989 544.367 188.226 544.29 177.859 544.249C167.493 544.208 142.881 543.976 123.168 543.738C94.9177 543.403 83.794 543.069 70.6339 542.157C61.4546 541.525 50.725 540.676 46.7901 540.271C42.8563 539.865 36.3097 539.068 32.2374 538.494C28.1652 537.92 22.6975 536.911 20.088 536.259C17.4788 535.607 14.2857 534.555 12.9874 533.927C11.6894 533.298 9.85951 532 8.91121 531.037C7.96835 530.074 6.66722 528.313 6.0284 527.125C5.38431 525.937 4.31295 523.037 3.65633 520.681C2.99435 518.324 2.13382 513.756 1.74226 510.531C1.2485 506.469 1.13553 501.569 1.38289 494.587C1.57637 489.043 2.20352 481.291 2.7784 477.367C3.35329 473.444 4.63518 466.667 5.63191 462.315C6.62876 457.963 9.16472 448.357 11.2618 440.974C13.359 433.59 17.0561 421.39 19.4708 413.868C21.8908 406.346 25.5516 395.222 31.3409 378.108L29.1016 375.519C27.3519 373.49 26.8763 372.524 26.92 371.07C26.9515 370.05 28.805 364.784 31.044 359.377C33.2784 353.968 38.5636 341.401 42.7882 331.448C47.0075 321.495 52.0286 309.818 53.9434 305.493C55.8529 301.169 59.2619 294.101 61.5216 289.787C63.7813 285.473 67.0578 279.719 68.797 276.993C70.5415 274.268 73.6449 269.942 75.6925 267.375C77.7454 264.808 80.994 261.358 82.9132 259.711C85.1377 257.797 88.1423 255.932 91.2432 254.538C93.9081 253.344 98.3732 251.812 101.171 251.142C103.968 250.467 106.62 249.728 107.064 249.508C107.508 249.279 110.679 244.904 120.325 230.478L120.524 224.907C120.638 221.846 121.137 217.08 121.64 214.317C122.148 211.555 123.246 207.169 124.084 204.565C124.922 201.962 126.879 197.118 128.429 193.808C129.984 190.498 132.672 185.559 134.411 182.834C136.145 180.108 139.259 175.667 141.321 172.951C143.384 170.236 147.461 165.339 150.38 162.07C153.293 158.802 156.642 155.014 159.948 151.205L158.968 148.519C158.34 146.795 158.023 144.597 158.09 142.385C158.185 139.223 158.026 138.675 156.163 135.82C155.046 134.108 153.788 131.26 153.368 129.495C152.793 127.072 152.734 125.317 153.122 122.317C153.405 120.138 153.696 117.04 153.771 115.433C153.845 113.825 153.481 109.156 152.957 105.051C152.365 100.391 152.081 95.1931 152.2 91.2188C152.306 87.7165 152.83 82.4736 153.358 79.5684C153.892 76.6632 155.371 71.4499 156.654 67.9834C157.938 64.5167 160.213 59.326 161.718 56.4502C163.223 53.5745 165.678 49.4687 167.177 47.3203C168.681 45.1773 171.766 41.3241 174.042 38.7637C176.313 36.2031 180.611 31.9079 183.586 29.2197C186.561 26.5317 190.947 23.1203 193.328 21.6358C195.71 20.1565 200.323 17.7519 203.58 16.294C206.837 14.8359 211.916 12.8312 214.867 11.8418C217.818 10.8525 222.998 9.42062 226.383 8.66212C229.767 7.89842 234.21 7.11365 236.261 6.91505ZM150.843 165.584C150.748 165.468 148.556 168.088 145.961 171.412C143.37 174.744 140.044 179.217 138.561 181.366C137.083 183.51 134.428 188.094 132.661 191.546C130.89 194.998 128.76 199.591 127.919 201.76C127.078 203.923 125.874 207.95 125.238 210.709C124.608 213.468 123.888 217.626 123.637 219.955C123.192 224.137 123.203 224.169 124.091 222.358C124.584 221.346 126.837 215.323 129.094 208.966C131.351 202.607 134.457 194.69 135.996 191.38C137.53 188.069 140.194 182.886 141.904 179.873C143.615 176.86 146.366 172.46 148.015 170.099C149.662 167.739 150.933 165.712 150.843 165.584Z" fill="#FBF3E8"/>
<path d="M236.262 6.91546C238.312 6.72231 242.376 6.73273 245.29 6.94791C248.205 7.16318 252.369 7.85162 254.538 8.47984C258.455 9.61211 258.52 9.61413 262.5 8.6824C265.671 7.93891 267.566 7.82532 271.544 8.15746C274.5 8.40051 278.097 9.09401 280.257 9.83351C282.281 10.5318 285.819 12.1089 288.119 13.3412C290.419 14.5735 293.816 16.7475 295.675 18.1684C297.533 19.5892 300.345 21.4795 301.922 22.3769C303.499 23.2688 305.844 24.7687 307.133 25.7051C308.422 26.6469 311.096 29.0485 313.08 31.0467C315.065 33.0449 317.932 36.5992 319.455 38.9501C320.977 41.301 322.815 44.6769 323.542 46.4515C324.264 48.2259 325.142 50.6422 325.489 51.8211C325.83 52.9999 326.847 55.0649 327.747 56.4038C328.646 57.7427 329.942 60.0547 330.625 61.5357C331.308 63.0169 332.415 65.9189 333.086 67.9838C333.757 70.0489 334.632 74.1387 335.021 77.0716C335.416 80.0046 336.029 83.8471 336.379 85.6104C336.735 87.374 337.072 92.0424 337.129 95.9902C337.185 99.9379 337.327 104.244 337.629 107.955L341.682 109.336C343.911 110.094 347.377 110.915 349.377 111.162C352.498 111.542 353.076 111.777 353.443 112.813C353.678 113.479 353.858 114.558 353.844 115.216C353.829 116.06 353.258 116.669 351.923 117.282C350.049 118.144 350.031 118.193 350.203 120.949C350.295 122.486 350.473 125.418 350.597 127.466C350.716 129.515 350.529 132.5 350.189 134.094C349.608 136.827 349.653 137.121 350.967 139.163C351.738 140.355 354.008 144.364 356.02 148.078C358.027 151.788 360.85 157.375 362.291 160.483C363.733 163.591 365.69 168.43 366.641 171.237C367.593 174.043 369.576 181.39 371.042 187.569C373.262 196.893 373.661 199.343 373.396 201.98C373.197 204.014 372.472 206.382 371.387 208.558C370.454 210.427 367.083 216.184 363.901 221.346C360.713 226.508 356.022 234.132 353.48 238.294C350.235 243.601 349.048 245.967 349.501 246.231C349.859 246.439 354.171 247.844 359.09 249.346C364.011 250.853 375.383 254.186 384.361 256.751C393.339 259.321 403.525 262.379 406.995 263.546C410.465 264.712 415.665 266.67 418.549 267.893C421.434 269.117 425.789 271.409 428.222 272.985C430.654 274.562 434.049 277.028 435.758 278.466C437.468 279.903 439.994 282.407 441.369 284.02C442.744 285.633 444.802 288.42 445.932 290.207C447.068 291.994 448.939 295.636 450.091 298.3C451.248 300.964 452.733 305.427 453.387 308.225C454.047 311.022 454.976 316.186 455.454 319.706C455.927 323.226 456.787 331.139 457.356 337.291C457.931 343.442 458.784 351.472 459.247 355.14C459.716 358.803 461.128 367.811 464.691 388.5L463.219 391.509C462.314 393.346 460.628 395.516 458.876 397.088C457.299 398.496 454.672 400.526 450.051 403.536L448.432 418.853C447.541 427.276 446.469 436.788 446.043 439.989C445.617 443.189 444.684 449.498 443.964 454.001C443.244 458.505 442.092 465.045 441.403 468.53C440.714 472.015 439.319 478.071 438.304 481.981C437.289 485.892 435.433 491.811 434.175 495.135C432.922 498.46 430.278 504.233 428.302 507.971C426.33 511.709 423.17 516.989 421.282 519.71C419.4 522.431 416.218 526.494 414.217 528.738C412.211 530.988 408.86 534.122 406.768 535.706C404.676 537.284 401.264 539.466 399.187 540.55C397.11 541.63 393.604 543.027 391.392 543.645C388.944 544.331 385.397 544.824 382.325 544.907C378.934 544.996 376.061 544.756 373.583 544.161C370.588 543.45 367.681 543.298 358.205 543.374C351.776 543.425 337.308 543.595 326.059 543.751C314.811 543.906 299.633 543.858 292.337 543.638C281.592 543.315 278.115 543.024 274.058 542.105C270.476 541.291 265.98 540.826 247.566 539.975L246.512 541.668C245.937 542.602 244.769 543.623 243.92 543.938C242.914 544.317 234.463 544.482 219.548 544.421C206.988 544.366 188.226 544.29 177.859 544.249C167.493 544.208 142.881 543.976 123.168 543.739C94.9176 543.403 83.7945 543.068 70.6343 542.157C61.4545 541.525 50.724 540.676 46.7897 540.271C42.8556 539.865 36.3091 539.069 32.2369 538.495C28.1648 537.921 22.6983 536.911 20.0887 536.259C17.4796 535.607 14.2872 534.555 12.9887 533.926C11.6906 533.298 9.86005 532 8.91171 531.037C7.96897 530.074 6.66797 528.314 6.02907 527.126C5.385 525.938 4.31418 523.037 3.6575 520.681C2.99551 518.324 2.13387 513.757 1.74232 510.531C1.24853 506.469 1.13574 501.569 1.38312 494.587C1.57661 489.042 2.20304 481.291 2.77792 477.367C3.35283 473.443 4.63484 466.667 5.63159 462.315C6.62844 457.963 9.16463 448.357 11.2617 440.974C13.3589 433.591 17.0571 421.39 19.4718 413.868C21.8918 406.346 25.5512 395.222 31.3404 378.108L29.1028 375.518C27.353 373.49 26.8775 372.525 26.9212 371.071C26.9524 370.051 28.8053 364.785 31.0445 359.377C33.2789 353.968 38.5642 341.401 42.7887 331.448C47.0081 321.495 52.0282 309.817 53.943 305.493C55.8525 301.169 59.263 294.101 61.5226 289.787C63.7823 285.473 67.0575 279.719 68.7967 276.993C70.5412 274.268 73.646 269.943 75.6937 267.375C77.7467 264.808 80.9949 261.358 82.914 259.711C85.1385 257.797 88.1423 255.932 91.2433 254.539C93.9081 253.344 98.3734 251.812 101.171 251.141C103.968 250.467 106.619 249.728 107.063 249.507C107.507 249.28 110.678 244.907 120.325 230.478L120.525 224.907C120.639 221.846 121.138 217.081 121.64 214.318C122.148 211.555 123.247 207.17 124.085 204.566C124.923 201.962 126.88 197.118 128.43 193.808C129.984 190.498 132.672 185.56 134.411 182.834C136.145 180.109 139.258 175.667 141.321 172.951C143.384 170.235 147.462 165.339 150.381 162.07C153.294 158.801 156.643 155.014 159.949 151.205L158.968 148.52C158.34 146.796 158.023 144.598 158.09 142.385C158.185 139.223 158.027 138.675 156.164 135.82C155.047 134.108 153.788 131.261 153.368 129.496C152.793 127.073 152.736 125.318 153.123 122.318C153.407 120.139 153.696 117.039 153.771 115.432C153.846 113.825 153.483 109.157 152.958 105.052C152.366 100.392 152.081 95.1934 152.2 91.2189C152.306 87.7167 152.83 82.474 153.358 79.5688C153.892 76.6636 155.371 71.4497 156.655 67.983C157.938 64.5163 160.214 59.3264 161.719 56.4505C163.223 53.5747 165.679 49.4689 167.178 47.3206C168.681 45.1777 171.766 41.324 174.042 38.7635C176.312 36.2028 180.612 31.9075 183.587 29.2193C186.563 26.5313 190.946 23.1205 193.328 21.636C195.709 20.1568 200.323 17.7517 203.58 16.2936C206.837 14.8356 211.917 12.8326 214.868 11.8432C217.819 10.8539 222.999 9.42044 226.383 8.66195C229.768 7.89822 234.211 7.11401 236.262 6.91546ZM37.4721 374.31L35.9482 378.911C35.1072 381.441 33.6752 385.758 32.7585 388.508C31.8418 391.258 29.1286 399.542 26.7184 406.916C24.3135 414.29 21.0147 424.712 19.3876 430.065C17.7606 435.417 15.7169 442.409 14.8508 445.597C13.9847 448.784 12.6283 454.001 11.8365 457.191C11.0447 460.38 9.67879 466.554 8.80408 470.91C7.92941 475.265 6.81342 482.523 6.33237 487.034C5.64703 493.392 5.54041 496.916 5.85523 502.688C6.08243 506.784 6.79812 512.664 7.45412 515.749C8.11012 518.833 9.09016 522.448 9.63427 523.782C10.1838 525.11 11.0194 526.66 11.4966 527.216C11.9742 527.772 13.2472 528.703 14.3231 529.293C15.3998 529.877 18.2382 530.882 20.6298 531.527C23.022 532.168 27.8309 533.147 31.3193 533.698C34.8083 534.249 43.1444 535.222 49.8437 535.86C56.5432 536.502 68.9433 537.454 77.3987 537.985C86.6389 538.56 102.304 539.048 116.666 539.204C129.807 539.345 151.551 539.532 164.986 539.617C178.421 539.703 197.539 539.79 207.471 539.813C217.402 539.83 228.69 539.942 232.559 540.053L239.59 540.265C239.175 537.99 238.88 536.01 238.663 534.395C238.446 532.778 238.371 528.002 238.493 523.767C238.627 519.151 239.12 514.067 239.715 511.057C240.266 508.296 241.28 504.423 241.971 502.446C242.715 500.308 243.011 498.782 242.701 498.676C242.408 498.581 237.173 497.835 231.066 497.019C224.957 496.198 215.438 494.802 209.915 493.908C204.392 493.014 192.741 490.995 184.025 489.42C175.309 487.846 163.9 485.728 158.672 484.721C153.444 483.714 140.501 481.052 129.904 478.805C119.306 476.563 104.939 473.553 97.9711 472.122L85.3024 469.521C56.0501 468.613 53.3517 468.41 54.1376 467.876C54.6642 467.515 56.3641 466.79 57.9144 466.263C59.4654 465.736 62.9516 464.982 65.6665 464.591C69.3789 464.054 72.276 464.008 77.3569 464.411L84.1124 464.944C89.4639 449.671 92.76 440.028 94.8955 433.666C97.0309 427.304 99.1821 419.902 99.6721 417.213C100.167 414.524 101.05 410.275 101.635 407.775L102.701 403.217C98.6886 399.783 95.5306 397.404 93.1015 395.705C90.6667 394.012 85.6234 390.929 81.8886 388.851C78.1537 386.779 72.6178 384.009 69.5925 382.702C66.562 381.394 61.3619 379.453 58.0374 378.386C54.7077 377.325 49.7283 376.001 46.9725 375.446C44.2118 374.89 40.9487 374.41 39.7173 374.372L37.4721 374.31ZM245.529 504.46C244.917 506.268 244.048 509.525 243.595 511.705C243.147 513.879 242.667 519.246 242.53 523.623C242.393 528.001 242.427 532.484 242.601 533.584L242.918 535.586C263.897 536.265 268.778 536.656 271.548 537.292C273.753 537.794 280.319 538.48 286.373 538.843C293.334 539.254 304.793 539.386 318.23 539.212C329.775 539.06 344.067 538.917 349.99 538.899L360.762 538.868C354.927 533.71 351.385 529.779 349.133 526.806C346.88 523.833 343.906 519.42 342.523 517.004L340.01 512.616C332.226 511.468 325.798 510.637 320.702 510.032C315.61 509.422 305.01 508.136 297.152 507.167C289.294 506.203 275.722 504.488 266.992 503.359C258.264 502.231 250.113 501.274 248.881 501.242L246.648 501.175L245.529 504.46ZM348.19 142.266C347.872 141.91 347.707 141.993 347.694 142.517C347.687 142.953 348.71 145.857 349.97 148.958C351.231 152.061 353.341 157.149 354.655 160.253C356.346 164.239 357.594 168.501 358.889 174.722C359.9 179.569 361.148 185.943 361.654 188.88C362.347 192.868 362.441 194.687 362.022 196.061C361.721 197.077 361.076 198.369 360.602 198.94C359.787 199.908 359.759 199.806 360.131 197.332C360.397 195.529 360.275 193.92 359.741 192.274C359.308 190.943 357.834 184.685 356.473 178.366C354.408 168.808 353.472 165.651 350.903 159.609C349.207 155.612 347.29 151.013 346.643 149.39L345.463 146.433L342.141 150.582C342.252 162.933 342.489 167.243 342.733 168.127C342.977 169.011 343.141 171.523 343.096 173.715C343.052 175.902 343.145 179.134 343.31 180.891C343.596 183.927 343.5 184.27 341.495 187.741C340.335 189.751 339.093 192.524 338.744 193.9C338.171 196.171 337.378 197.078 330.135 203.732C325.744 207.764 319.239 214.08 315.67 217.77C312.102 221.46 307.797 226.11 306.101 228.104C304.405 230.097 301.908 233.486 300.552 235.638C299.202 237.786 297.678 240.969 297.174 242.707C296.665 244.444 296.226 246.699 296.19 247.723C296.159 248.748 296.683 251.626 297.351 254.131C298.019 256.637 299.474 263.729 300.584 269.897C301.694 276.065 303.304 285.557 304.155 290.985C305.011 296.412 305.897 302.297 306.131 304.057C306.365 305.818 307.542 314.335 308.753 322.991C309.958 331.648 311.799 346.16 312.848 355.247C313.892 364.334 315.426 377.409 316.254 384.296C317.088 391.184 318.738 404.145 319.929 413.088C321.121 422.031 322.886 434.278 323.863 440.294C324.835 446.309 326.671 456.047 327.939 461.927C329.206 467.808 331.039 475.39 332.02 478.781C332.996 482.173 334.678 487.359 335.747 490.313C336.821 493.266 339.182 498.834 340.994 502.686C342.806 506.538 346.128 512.614 348.374 516.187C350.619 519.755 354.422 524.857 356.823 527.521C359.223 530.186 362.83 533.528 364.832 534.953C366.849 536.39 370.232 538.16 372.413 538.926C375.861 540.13 377.052 540.287 381.936 540.19C385.958 540.109 388.487 539.756 391.003 538.913C392.924 538.275 395.907 536.957 397.63 535.989C399.359 535.021 402.042 533.248 403.591 532.046C405.147 530.85 407.863 528.302 409.631 526.386C411.398 524.473 414.284 520.917 416.04 518.49C417.802 516.062 421.027 510.896 423.21 507.021C425.392 503.146 427.87 498.318 428.712 496.299C429.548 494.279 431.007 490.259 431.949 487.367C432.886 484.474 434.463 478.668 435.45 474.459C436.432 470.25 437.985 462.054 438.893 456.239C439.807 450.424 441.165 440.783 441.923 434.82C442.676 428.856 444.218 415.205 445.359 404.494C447.178 387.295 447.328 384.955 446.64 384.514C446.207 384.241 443.958 383.589 441.638 383.057C439.317 382.531 434.92 381.788 431.862 381.409C428.174 380.947 424.252 380.829 420.187 381.062C416.82 381.253 411.549 381.833 408.464 382.34C405.379 382.853 399.847 384.184 396.159 385.3C390.843 386.908 389.422 387.54 389.269 388.369C389.167 388.941 391.378 394.021 394.187 399.655C396.997 405.29 402.057 415.242 405.429 421.77C408.802 428.298 412.52 435.703 413.693 438.219C414.865 440.735 416.755 445.338 417.899 448.437C419.038 451.536 420.415 455.879 420.96 458.089C421.499 460.293 422.148 464.142 422.392 466.63C422.641 469.118 422.669 471.87 422.463 472.741C422.251 473.61 421.968 474.738 421.83 475.244C421.688 475.75 421.218 476.156 420.778 476.143C420.295 476.128 419.83 475.338 419.585 474.115C419.369 473.014 418.734 469.585 418.174 466.503C417.608 463.422 416.159 457.876 414.953 454.191C413.742 450.5 411.403 444.577 409.757 441.022C408.106 437.466 404.485 430.187 401.714 424.845C398.938 419.504 394.216 410.157 391.218 404.081C388.219 398.005 384.125 389.154 382.122 384.42C380.119 379.686 376.572 370.794 374.25 364.665C371.928 358.534 368.139 348.021 365.829 341.307C363.519 334.593 359.384 321.62 356.647 312.482C353.906 303.344 350.381 290.926 348.81 284.893C347.244 278.86 345.112 270.308 344.071 265.895C343.03 261.483 342.049 257.034 341.883 256.004C341.705 254.872 341.969 252.787 342.557 250.712C343.092 248.832 344.867 244.939 346.504 242.067C348.141 239.195 352.604 231.92 356.428 225.901C360.253 219.882 364.749 212.73 366.414 210.002C369.397 205.137 369.455 204.968 369.58 200.803C369.68 197.487 369.31 194.974 367.897 189.333C366.902 185.357 365.205 179.091 364.131 175.41C363.052 171.723 360.639 165.442 358.757 161.439C356.88 157.437 353.842 151.609 352.008 148.489C350.179 145.37 348.463 142.567 348.19 142.266ZM98.2037 439.342C97.9591 439.337 97.2267 440.93 96.5682 442.879C95.9093 444.83 93.9155 450.686 92.1336 455.891C90.3521 461.094 89.0677 465.506 89.2737 465.7C89.4909 465.888 93.2725 466.718 97.6897 467.546C102.103 468.369 105.851 468.928 106.017 468.79C106.174 468.648 105.303 466.169 104.08 463.288C102.855 460.404 101.218 455.336 100.441 452.025C99.6699 448.714 98.946 444.512 98.8418 442.682C98.7323 440.852 98.4477 439.351 98.2037 439.342ZM119.968 339.789C119.935 335.779 119.822 336.333 118.967 344.804C118.438 350.046 117.603 356.597 117.116 359.355C116.624 362.118 115.222 369.008 114 374.665C112.773 380.326 110.837 388.511 109.697 392.859C108.562 397.205 107.684 400.821 107.745 400.894C107.807 400.964 108.446 399.486 109.161 397.617C109.87 395.742 111.544 389.403 112.878 383.526C114.208 377.655 116.002 369.402 116.862 365.19C117.721 360.982 118.78 354.561 119.214 350.92C119.647 347.284 119.989 342.275 119.968 339.789ZM452.916 387.051C452.249 386.819 452.002 387.588 451.537 391.413C451.226 393.962 450.863 396.346 450.735 396.71C450.607 397.073 450.742 397.375 451.033 397.384C451.327 397.39 452.946 396.186 454.63 394.703C456.321 393.22 457.921 391.594 458.191 391.092C458.595 390.345 458.231 389.919 456.206 388.754C454.843 387.975 453.364 387.208 452.916 387.051ZM388.307 335.5C388.177 335.499 386.711 337.308 385.052 339.518C383.387 341.736 380.621 346.072 378.903 349.159C377.191 352.251 375.785 355.194 375.78 355.705C375.781 356.219 376.485 355.22 377.349 353.494C378.214 351.767 380.139 348.363 381.636 345.922C383.127 343.487 385.289 340.147 386.443 338.498C387.591 336.855 388.428 335.505 388.307 335.5ZM101.643 306.838C101.42 306.832 101.363 307.133 101.517 307.499C101.67 307.87 102.778 310.952 103.983 314.345C105.181 317.743 107.08 323.653 108.196 327.484C109.313 331.315 110.523 335.415 110.891 336.595L111.56 338.74C111.177 335.435 110.041 330.982 108.784 326.706C107.531 322.435 105.504 316.217 104.281 312.893C103.054 309.575 101.872 306.847 101.643 306.838ZM400.627 301.348C400.526 301.345 399.559 302.213 398.487 303.274C397.409 304.341 395.059 307.075 393.274 309.358C391.485 311.642 388.719 315.622 387.133 318.203C385.542 320.784 382.982 325.371 381.446 328.389C379.911 331.413 377.971 335.837 377.135 338.218C376.304 340.603 375.625 342.854 375.624 343.218C375.629 343.584 376.347 341.992 377.224 339.681C378.101 337.371 380.073 332.889 381.613 329.722C383.153 326.555 386.05 321.384 388.057 318.231C390.058 315.078 392.791 311.097 394.123 309.384C395.454 307.671 397.506 305.168 398.678 303.812C399.848 302.463 400.725 301.354 400.627 301.348ZM285.327 315.035C285.251 315.039 283.976 315.76 282.49 316.633C281.003 317.508 277.849 319.055 275.482 320.067C273.114 321.079 269.249 322.449 266.892 323.116C264.535 323.783 260.445 324.664 257.803 325.084C255.092 325.512 249.991 325.784 246.1 325.714C242.305 325.643 237.293 325.37 234.964 325.108C231.905 324.761 231.315 324.775 232.838 325.171C233.998 325.472 238.163 325.969 242.099 326.274C247.419 326.684 250.751 326.646 255.116 326.14C258.341 325.764 263.024 324.933 265.529 324.296C268.028 323.66 272.015 322.33 274.381 321.345C276.748 320.359 280.217 318.594 282.09 317.423C283.964 316.255 285.485 315.24 285.477 315.162C285.468 315.093 285.396 315.033 285.327 315.035ZM215.839 209.654C213.872 207.44 212.395 206.046 212.549 206.554C212.704 207.063 213.161 210.901 213.566 215.083C214.19 221.544 214.188 223.558 213.534 228.504C213.099 231.836 212.262 235.497 211.582 237.076C210.931 238.591 209.957 240.436 209.425 241.175C208.892 241.918 207.243 243.053 205.763 243.705C203.449 244.718 202.999 245.162 202.565 246.88C202.283 247.977 202.005 251.022 201.942 253.649C201.884 256.276 202.134 260.347 202.504 262.695C202.88 265.043 203.849 269.497 204.665 272.586C205.48 275.675 207.261 280.754 208.617 283.859C209.979 286.965 212.268 291.537 213.708 294.013C216.056 298.046 216.628 298.664 219.208 299.931C220.794 300.712 224.098 302.091 226.55 302.999C229.003 303.906 233.275 305.125 236.03 305.707C239.128 306.363 243.877 306.856 248.472 307.011C253.316 307.167 257.481 306.995 260.438 306.505C262.93 306.097 266.663 305.247 268.727 304.619C270.79 303.991 274.542 302.521 277.057 301.349C279.573 300.176 283.273 298.158 285.266 296.863C287.931 295.138 289.442 293.675 290.929 291.383C292.043 289.663 293.946 286.433 295.155 284.207C296.358 281.981 297.363 279.621 297.378 278.963C297.398 278.304 296.689 273.806 295.804 268.957C294.515 261.871 293.968 259.931 293.017 259.047C292.366 258.443 291.375 256.617 290.813 254.997C290.251 253.376 289.579 250.482 289.323 248.579C289.067 246.675 288.82 244.277 288.771 243.256C288.711 241.879 288.348 241.22 287.381 240.707C286.663 240.324 281.083 239.025 274.987 237.816C268.889 236.602 261.178 234.792 257.847 233.789C254.515 232.786 249.782 231.205 247.329 230.271C244.877 229.341 239.573 226.818 235.549 224.663C231.508 222.501 226.254 219.167 223.822 217.214C221.4 215.271 217.806 211.87 215.839 209.654ZM171.603 271.766C171.058 270.459 171.052 270.47 171.302 272.023C171.446 272.905 172.616 276.046 173.902 279.006C175.188 281.966 177.311 286.093 178.618 288.177C179.926 290.261 182.317 293.562 183.937 295.507C185.557 297.457 188.268 300.407 189.965 302.062C192.008 304.064 191.413 303.237 188.181 299.582C185.504 296.564 181.84 291.79 180.039 288.979C178.243 286.174 175.73 281.451 174.464 278.491C173.194 275.533 171.91 272.51 171.603 271.766ZM199.705 244.346C199.514 244.368 196.602 245.006 193.22 245.754C189.838 246.506 186.954 247.248 186.796 247.409C186.648 247.571 186.483 249.887 186.44 252.561C186.388 255.677 186.725 258.97 187.37 261.709C187.926 264.063 189.118 267.683 190.017 269.755C190.916 271.827 192.66 275.104 193.887 277.042C195.109 278.98 197.973 282.624 200.245 285.141C202.517 287.658 205.892 290.931 207.749 292.41C209.606 293.884 211.182 294.972 211.261 294.832C211.338 294.684 210.865 293.651 210.209 292.538C209.552 291.424 208.169 288.69 207.131 286.47C206.098 284.246 204.526 280.374 203.646 277.867C202.76 275.36 201.505 271.137 200.858 268.488C200.204 265.839 199.436 261.753 199.146 259.407C198.851 257.008 198.807 253.172 199.042 250.64C199.276 248.162 199.599 245.723 199.753 245.218C199.911 244.713 199.886 244.32 199.705 244.346ZM184.185 238.753C183.16 238.717 178.592 239.636 174.032 240.789C169.467 241.948 162.79 243.404 159.197 244.034C155.598 244.658 145.282 245.914 136.273 246.817C127.26 247.725 117.61 248.757 114.826 249.114C112.038 249.466 107.715 250.175 105.219 250.684C102.718 251.193 99.7137 251.824 98.5374 252.081C97.3619 252.338 96.5137 252.663 96.6576 252.794C96.7979 252.931 98.8408 252.637 101.192 252.145C103.544 251.653 109.185 250.76 113.733 250.154C118.276 249.552 126.793 248.597 132.652 248.036C138.511 247.474 145.943 246.71 149.167 246.35C152.391 245.985 157.674 245.2 160.905 244.601C164.136 244.008 169.307 242.846 172.402 242.026C175.491 241.205 179.826 240.15 182.033 239.675C184.994 239.042 185.554 238.8 184.185 238.753ZM259.078 122.321C258.203 122.295 257.483 122.396 257.478 122.539C257.476 122.683 258.593 123.311 259.959 123.935C261.326 124.556 263.142 125.811 263.991 126.723C264.839 127.635 265.353 128.367 265.137 128.356C264.918 128.343 263.624 127.583 262.267 126.661C260.908 125.744 258.487 124.672 256.894 124.279C254.791 123.759 252.971 123.677 250.264 123.989C248.213 124.224 245.199 124.979 243.574 125.663C241.95 126.352 239.088 128.098 237.217 129.545C235.347 130.996 233.826 131.944 233.834 131.653C233.843 131.361 234.65 130.317 235.63 129.327C236.611 128.342 238.869 126.716 240.652 125.713C243.585 124.065 243.717 123.92 242.025 124.208C240.999 124.385 238.591 124.987 236.673 125.556C234.755 126.119 231.985 127.263 230.51 128.1C228.489 129.239 227.442 130.318 226.246 132.486C224.937 134.853 224.648 136.013 224.571 139.075C224.52 141.118 224.79 144.117 225.172 145.732C225.554 147.348 226.527 150.129 227.334 151.906C228.136 153.683 229.7 156.237 230.801 157.587C231.903 158.937 234.069 160.903 235.62 161.964C237.171 163.025 239.802 164.358 241.463 164.929C243.298 165.557 246.158 166.016 248.731 166.093C251.066 166.164 254.236 165.999 255.78 165.721C257.323 165.449 260.337 164.462 262.484 163.533C264.917 162.481 267.631 160.73 269.689 158.891C272.887 156.034 273.038 155.964 274.283 156.771C274.991 157.228 275.555 157.903 275.539 158.27C275.518 158.635 275.018 159.157 274.426 159.431C273.833 159.705 273.082 160.698 272.756 161.638C272.43 162.579 272.148 164.005 272.129 164.807C272.106 165.751 272.749 166.987 273.951 168.313C275.693 170.24 275.92 170.333 277.754 169.921C278.824 169.677 281.251 169.511 283.15 169.557C286.005 169.622 287.186 169.95 289.998 171.458C291.868 172.464 293.814 173.298 294.324 173.308C294.833 173.324 296.16 173.003 297.266 172.601C298.372 172.193 299.397 172.007 299.536 172.181C299.673 172.36 299.116 173.06 298.294 173.742C297.472 174.418 295.895 175.098 294.797 175.245C293.245 175.453 291.916 175.116 288.868 173.718C285.101 171.995 284.741 171.931 280.151 172.154C275.811 172.368 275.181 172.275 273.409 171.176C272.335 170.512 271.084 169.177 270.629 168.213C270.155 167.211 269.874 165.439 269.973 164.077L270.152 161.693C268.216 163.376 266.562 164.443 265.224 165.146C263.885 165.854 261.23 166.895 259.312 167.458C257.394 168.022 253.915 168.565 251.575 168.67C249.176 168.773 245.709 168.536 243.624 168.123C241.591 167.717 238.401 166.579 236.53 165.593C234.658 164.607 231.974 162.562 230.553 161.048C229.138 159.534 227.153 156.839 226.145 155.056C225.131 153.273 223.764 150.002 223.097 147.794C222.436 145.581 221.604 142.72 221.244 141.424C220.89 140.134 220.13 138.74 219.558 138.335C218.865 137.839 217.718 137.674 216.12 137.838C214.799 137.974 211.013 138.811 207.699 139.693C204.391 140.58 201.626 141.302 201.543 141.303C201.469 141.314 201.593 145.317 201.812 150.207C202.031 155.106 202.72 163.078 203.344 167.914C203.963 172.749 204.769 177.734 205.13 178.988C205.49 180.24 205.602 181.262 205.386 181.264C205.167 181.26 203.392 178.998 201.442 176.232C199.497 173.466 197.725 170.96 197.51 170.659C197.296 170.36 196.576 168.666 195.907 166.894L194.687 163.67L189.604 162.98C189.593 167.924 189.601 169.778 189.606 170.289C189.612 170.799 190.779 172.449 192.195 173.952C194.021 175.892 194.755 177.11 194.735 178.145C194.716 178.946 194.385 179.876 194.009 180.205C193.48 180.667 192.918 180.618 191.614 180C190.677 179.558 189.074 179.169 188.055 179.138C187.036 179.108 185.55 178.728 184.761 178.29C183.972 177.852 182.702 176.799 181.937 175.948C181.176 175.097 180.21 173.489 179.787 172.383C179.369 171.276 179.046 169.652 179.072 168.777C179.098 167.901 179.377 166.592 179.691 165.874C180.005 165.151 180.754 164.1 181.355 163.534C181.956 162.968 183.047 162.522 183.774 162.544C184.506 162.566 185.116 162.404 185.134 162.187C185.151 161.97 184.054 160.662 182.699 159.283C181.339 157.904 179.468 156.354 178.532 155.837C177.597 155.321 176.057 154.934 175.105 154.98C173.654 155.048 173.267 155.356 172.684 156.899C172.229 158.096 172.067 160.131 172.212 162.728C172.381 165.754 172.286 166.617 171.812 166.3C171.474 166.072 170.866 164.736 170.467 163.338C170.068 161.94 169.779 159.541 169.83 158.008C169.907 155.653 170.166 154.985 171.517 153.677C172.709 152.529 173.603 152.147 175.015 152.189C176.06 152.221 177.742 152.633 178.748 153.099L180.58 153.95C177.666 148.079 176.836 147.076 175.706 146.681C174.492 146.262 173.627 146.401 171.538 147.352C169.638 148.218 168.579 149.133 167.737 150.642C167.08 151.817 166.432 154.125 166.256 155.909C166.034 158.186 166.248 160.228 167.012 163.102C167.604 165.308 168.649 168.33 169.348 169.812C170.042 171.293 171.528 173.967 172.653 175.754C173.778 177.54 176.226 180.577 178.085 182.508C179.95 184.434 183.108 187.334 185.104 188.945C187.099 190.56 189.028 191.892 189.396 191.91C189.762 191.931 190.076 191.41 190.09 190.752C190.11 190.094 190.498 189.033 190.958 188.388C191.595 187.5 192.31 187.233 193.917 187.281C195.742 187.336 196.145 187.572 196.788 188.961C197.202 189.85 197.508 191.533 197.473 192.7C197.438 193.867 197.647 194.828 197.939 194.839C198.231 194.847 199.077 194.634 199.812 194.364C200.553 194.094 202.019 193.065 203.068 192.072C204.118 191.079 205.388 190.341 205.88 190.43C206.377 190.52 208.221 192.785 209.988 195.467C211.75 198.149 214.758 202.181 216.676 204.432C218.59 206.678 222.477 210.391 225.313 212.68C228.211 215.014 233.107 218.248 236.484 220.049C239.793 221.816 245.69 224.416 249.588 225.824C253.487 227.232 259.529 229.07 263.009 229.913C266.489 230.751 271.835 231.89 274.883 232.433C277.931 232.981 282.102 233.479 284.145 233.54C286.188 233.602 289.417 233.455 291.326 233.204C293.234 232.959 295.723 232.497 296.864 232.181C298.218 231.808 299.212 231.104 299.713 230.169C300.14 229.38 302.303 226.693 304.518 224.206C306.734 221.717 312.387 215.848 317.079 211.172C325.544 202.738 325.639 202.613 328.71 196.386C330.413 192.932 332.508 188.097 333.357 185.637C334.212 183.177 335.564 178.321 336.365 174.84C337.171 171.359 338.053 166.366 338.339 163.746C338.62 161.125 338.725 157.66 338.566 156.051L338.288 153.121C333.54 155.251 330.361 156.191 328.156 156.592C325.534 157.06 322.688 157.182 319.913 156.928C317.583 156.715 314.325 156.06 312.67 155.463C311.017 154.872 309.728 154.509 309.799 154.653C309.875 154.799 310.451 156.134 311.081 157.613C311.884 159.507 312.116 160.81 311.851 162.018C311.642 162.963 310.859 164.432 310.101 165.285C309.347 166.139 308.249 166.823 307.665 166.806C307.082 166.788 306.611 166.534 306.62 166.243C306.629 165.951 307.035 165.544 307.519 165.341C308.003 165.137 308.744 164.32 309.166 163.531C309.621 162.679 309.82 161.389 309.66 160.359C309.513 159.404 308.903 157.787 308.307 156.771C307.711 155.749 306.179 154.066 304.893 153.034C303.607 151.997 301.873 150.129 301.035 148.877C300.196 147.625 298.69 144.552 297.682 142.052C296.151 138.229 295.83 136.695 295.692 132.453L295.525 127.402C291.746 125.939 290.679 125.88 287.762 126.292C285.789 126.572 282.902 127.356 281.346 128.037C279.123 129.016 278.589 129.479 278.832 130.219C279.003 130.735 279.431 132.362 279.785 133.833C280.139 135.304 280.388 137.823 280.334 139.426C280.275 141.028 279.86 143.889 279.405 145.772C278.945 147.654 277.958 150.614 277.205 152.344C276.109 154.876 275.635 155.447 274.801 155.273C274.231 155.161 273.706 154.964 273.635 154.84C273.565 154.719 274.145 153.266 274.916 151.612C275.688 149.957 276.596 147.536 276.922 146.229C277.253 144.921 277.585 142.185 277.657 140.142C277.724 138.1 277.47 135.223 277.084 133.751C276.699 132.269 275.524 130.014 274.444 128.685C273.379 127.373 271.562 125.794 270.412 125.18C269.262 124.567 266.6 123.684 264.495 123.217C262.391 122.75 259.955 122.348 259.078 122.321ZM150.843 165.584C150.744 165.473 148.554 168.092 145.962 171.412C143.371 174.744 140.044 179.217 138.561 181.366C137.084 183.51 134.428 188.093 132.662 191.545C130.89 194.997 128.76 199.592 127.919 201.76C127.079 203.923 125.874 207.95 125.239 210.709C124.609 213.467 123.888 217.625 123.638 219.955C123.193 224.137 123.203 224.17 124.091 222.359C124.584 221.348 126.836 215.324 129.094 208.966C131.351 202.607 134.458 194.691 135.997 191.38C137.531 188.07 140.194 182.886 141.905 179.873C143.615 176.86 146.366 172.46 148.014 170.098C149.662 167.738 150.934 165.71 150.843 165.584ZM301.414 200.132C301.595 200.111 301.694 200.385 301.635 200.749C301.576 201.113 300.448 201.914 299.128 202.533C297.809 203.146 295.771 203.77 294.598 203.92C293.425 204.066 291.811 204.022 291.016 203.812C290.22 203.608 289.696 203.204 289.848 202.917C290.002 202.629 291.509 202.292 293.19 202.173C294.872 202.048 297.335 201.554 298.667 201.063C299.998 200.578 301.231 200.159 301.414 200.132ZM193.366 188.858C193.09 188.851 192.453 189.363 191.951 189.995C191.41 190.68 191.038 192.071 191.024 193.42C191.018 194.673 191.34 196.536 191.749 197.573C192.169 198.637 193.168 199.82 194.057 200.298C194.919 200.76 196.164 201.042 196.827 200.913C197.489 200.79 198.423 200.281 198.906 199.781C199.388 199.286 199.95 198.463 200.156 197.959C200.405 197.348 200.222 196.917 199.61 196.668C199.038 196.439 198.48 196.613 198.135 197.134C197.829 197.597 197.223 197.977 196.782 197.98C196.341 197.982 195.698 197.671 195.348 197.294C194.911 196.819 194.844 195.691 195.132 193.692C195.461 191.403 195.374 190.582 194.712 189.829C194.25 189.306 193.642 188.867 193.366 188.858ZM314.96 180.319C315.253 180.291 315.779 180.652 316.131 181.114C316.672 181.826 316.285 182.32 313.563 184.378C311.796 185.711 308.206 187.855 305.586 189.141C302.961 190.427 299.249 191.977 297.329 192.588C294.149 193.608 292.94 193.678 283.496 193.383C277.262 193.196 271.576 192.738 269.19 192.241C267.016 191.788 264.281 191.239 263.118 191.023C261.433 190.712 260.986 190.384 260.908 189.431C260.839 188.574 261.155 188.158 262.015 187.972C262.678 187.833 263.811 187.968 264.529 188.271C265.378 188.636 267.151 188.695 269.569 188.434C271.621 188.214 276.61 187.307 280.651 186.419C285.506 185.35 289.218 184.845 291.584 184.927C294.353 185.02 295.898 184.742 298.393 183.713C300.91 182.674 302.673 182.36 306.402 182.308C309.835 182.252 311.644 181.967 312.806 181.301C313.698 180.786 314.667 180.342 314.96 180.319ZM306.909 184.369C306.011 184.374 304.317 184.535 303.142 184.722C301.968 184.91 299.798 185.567 298.319 186.186C296.582 186.909 294.311 187.33 291.909 187.375C289.863 187.409 285.427 187.971 282.046 188.624C278.67 189.271 275.064 189.964 274.032 190.166C272.429 190.479 272.845 190.614 276.925 191.098C279.545 191.405 284.32 191.591 287.536 191.502C290.97 191.409 294.6 190.972 296.331 190.445C297.956 189.947 301.098 188.771 303.315 187.824C305.536 186.877 307.616 185.708 307.945 185.229C308.455 184.485 308.31 184.363 306.909 184.369ZM185.425 163.635C185.185 163.64 184.288 164.324 183.43 165.147C182.293 166.244 181.844 167.203 181.773 168.682C181.718 169.801 182.064 171.543 182.544 172.561C183.023 173.574 184.004 174.858 184.715 175.41C185.431 175.963 187.138 176.63 188.511 176.889C189.883 177.154 191.015 177.31 191.023 177.236C191.028 177.158 190.222 176.062 189.227 174.792C188.235 173.519 187.23 171.641 186.995 170.609C186.761 169.576 186.761 167.987 186.99 167.076C187.279 165.922 187.169 165.142 186.636 164.521C186.21 164.025 185.67 163.627 185.425 163.635ZM200.735 158.275C200.517 158.27 200.467 160.296 200.615 162.785C200.768 165.276 201.116 167.852 201.388 168.519C201.838 169.605 201.866 169.563 201.691 168.13C201.58 167.25 201.413 164.674 201.317 162.409C201.215 160.145 200.957 158.285 200.735 158.275ZM331.396 110.727C328.768 110.674 325.058 110.928 323.145 111.29C321.235 111.652 319.571 112.064 319.443 112.199C319.319 112.333 320.334 112.481 321.691 112.521C323.553 112.578 324.551 112.937 325.72 113.97C326.574 114.724 327.632 115.238 328.077 115.103C328.57 114.954 328.969 115.275 329.114 115.932C329.277 116.685 329.663 116.93 330.417 116.767C331.261 116.58 331.499 116.093 331.549 114.412C331.605 112.56 331.768 112.294 332.808 112.33C333.466 112.356 334.534 112.509 335.188 112.667C336.205 112.921 336.363 113.303 336.302 115.351C336.262 116.661 336.411 117.744 336.628 117.752C336.847 117.763 338.197 117.383 339.628 116.912L342.229 116.061C343.764 118.162 344.197 118.956 344.175 119.174C344.157 119.391 343.29 119.965 342.246 120.443C341.202 120.922 340.347 121.432 340.337 121.581C340.333 121.73 341.605 123.914 343.17 126.447C345.702 130.537 345.967 131.252 345.599 132.893C345.372 133.91 345.063 134.857 344.92 134.997C344.773 135.136 344.466 134.887 344.236 134.445C344.01 134.003 343.317 133.021 342.703 132.275C341.842 131.23 341.941 131.641 343.128 134.013C344.3 136.364 344.57 137.446 344.236 138.498C343.995 139.26 343.613 139.965 343.392 140.066C343.171 140.165 342.548 139.338 342.013 138.229C341.484 137.119 340.466 135.474 339.76 134.576L338.475 132.944L341.08 144.707C339.097 146.909 338.284 147.422 337.996 147.27C337.709 147.118 337.492 146.57 337.513 146.061C337.533 145.551 336.979 142.964 336.278 140.314C335.582 137.664 334.399 133.209 333.655 130.409C332.905 127.609 332.311 124.786 332.326 124.128C332.349 123.168 332.12 122.98 331.154 123.158C330.492 123.276 329.655 123.373 329.289 123.367C328.923 123.357 328.402 123.883 328.127 124.533C327.824 125.246 327.824 125.825 328.126 125.994C328.402 126.146 327.691 127.022 326.544 127.937C325.395 128.853 323.371 129.94 322.041 130.356C320.711 130.768 318.01 131.223 316.03 131.365C313.311 131.565 312.436 131.47 312.457 130.966C312.474 130.568 313.5 130.216 315.012 130.092L317.541 129.876C315.737 128.213 314.851 126.942 314.408 125.978C313.859 124.793 313.725 123.589 313.988 122.248C314.201 121.162 314.197 120.265 313.98 120.256C313.761 120.245 312.363 120.999 310.876 121.926C309.387 122.853 306.93 125.047 305.417 126.802C303.904 128.551 302.489 129.867 302.275 129.718C302.062 129.572 302.153 128.684 302.478 127.744C302.804 126.803 303.747 125.127 304.582 124.016C305.413 122.899 307.319 120.969 308.817 119.723C310.315 118.478 312.872 117.004 314.492 116.442C316.113 115.886 319.121 115.322 321.17 115.192L324.894 114.966C321.635 113.875 320.21 113.544 319.626 113.526C319.042 113.509 317.119 113.892 315.352 114.37C313.585 114.847 311.164 115.843 309.974 116.572C308.783 117.306 307.137 118.371 306.318 118.942C305.499 119.511 304.838 119.8 304.849 119.583C304.861 119.366 305.423 118.665 306.09 118.027C306.762 117.394 307.132 116.747 306.919 116.591C306.704 116.444 305.039 117.646 303.223 119.269C301.285 120.994 299.549 123.093 299.039 124.321C298.415 125.816 298.182 127.721 298.239 130.936C298.305 134.762 298.584 136.067 300.096 139.49C301.095 141.756 303.082 144.928 304.627 146.717C306.628 149.039 308.45 150.466 311.299 151.948C314.776 153.752 315.794 154.022 320.256 154.342C323.854 154.599 326.286 154.475 328.768 153.907C330.682 153.471 333.678 152.404 335.435 151.533C337.188 150.656 339.629 148.987 340.859 147.813C342.084 146.645 343.787 144.422 344.635 142.881C345.484 141.339 346.581 138.42 347.078 136.39C347.574 134.36 348.02 131.383 348.068 129.78C348.116 128.177 347.878 125.297 347.537 123.391C347.197 121.485 346.556 119.133 346.112 118.169C345.663 117.205 344.427 115.542 343.366 114.469C342.226 113.325 340.354 112.175 338.802 111.672C337.287 111.185 334.145 110.783 331.396 110.727ZM190.929 141.009C190.559 141.015 188.331 141.671 185.972 142.47C183.612 143.27 181.435 144.128 181.134 144.374C180.797 144.651 181.144 144.959 182.04 145.182C182.974 145.412 184.918 145.062 187.519 144.2C190.437 143.232 191.55 142.606 191.571 141.933C191.581 141.423 191.295 141.005 190.929 141.009ZM254.472 125.375C256.817 125.435 258.346 125.821 260.27 126.846C262.261 127.904 263.303 128.955 264.652 131.253C266.319 134.101 266.369 134.354 265.583 135.604C265.086 136.391 262.99 137.736 260.438 138.907C257.347 140.327 255.155 140.947 252.67 141.116C250.057 141.293 249.311 141.201 249.628 140.727C249.856 140.389 250.523 140.122 251.106 140.139C252.013 140.167 251.914 139.913 250.415 138.392C249.256 137.215 248.562 135.893 248.355 134.48C248.166 133.194 248.298 131.823 248.682 131.038C249.033 130.322 249.2 129.668 249.05 129.588C248.897 129.51 247.133 130.243 245.135 131.212C243.135 132.182 240.396 133.895 239.045 135.012C236.659 136.996 236.619 137.074 237.63 137.896C238.201 138.359 239.891 139.186 241.393 139.731C242.89 140.28 243.947 140.938 243.739 141.192C243.528 141.451 242.168 141.479 240.715 141.25C239.262 141.026 237.012 140.437 235.709 139.946C234.407 139.456 232.689 139.038 231.887 139.018C231.086 139 230.255 138.709 230.047 138.374C229.825 138.011 230.115 137.532 230.745 137.222C231.339 136.925 233.542 135.202 235.641 133.391C237.74 131.579 240.549 129.502 241.888 128.772C243.227 128.047 245.884 126.969 247.803 126.379C249.829 125.75 252.62 125.335 254.472 125.375ZM277.063 38.6782C275.936 36.601 274.999 35.1395 274.984 35.4286C274.97 35.7204 275.377 37.167 275.884 38.6427C276.398 40.1187 276.951 42.4092 277.119 43.7261C277.355 45.5756 277.22 46.3312 276.541 47.0276C275.993 47.5899 274.245 48.0898 271.927 48.3493C269.877 48.5796 268.098 48.9463 267.974 49.1604C267.856 49.3745 269.105 49.5177 270.753 49.4717L273.755 49.398C271.652 51.0074 269.713 51.6877 268.101 51.9526C266.489 52.2175 262.878 53.0643 260.077 53.835C257.276 54.6059 252.69 56.2744 249.874 57.5492C247.058 58.8187 243.181 60.922 241.257 62.2236C239.327 63.5199 236.132 66.0901 234.159 67.9267C232.187 69.7633 229.543 72.5524 228.295 74.1241C227.042 75.6957 225.13 78.5058 224.044 80.3691C222.952 82.2324 221.003 86.6565 219.712 90.1973C218.421 93.7381 216.45 98.337 215.33 100.423C214.21 102.508 212.401 105.619 211.303 107.339C210.205 109.058 207.905 112.219 206.184 114.355C204.468 116.496 202.647 118.593 202.135 119.013C201.345 119.675 201.184 120.919 200.996 127.876C200.861 132.713 200.983 136.078 201.296 136.25C201.585 136.401 204.292 135.74 207.316 134.774C210.34 133.803 213.427 132.573 214.171 132.038C214.92 131.503 215.824 131.084 216.19 131.105C216.557 131.121 218.247 130.573 219.946 129.881C221.645 129.188 224.615 127.742 226.548 126.664C228.482 125.585 231.993 124.007 234.355 123.16C236.718 122.312 240.575 121.222 242.926 120.746C245.278 120.264 249.358 119.697 251.994 119.479C255.177 119.219 258.341 119.308 261.413 119.746C263.956 120.109 267.516 120.95 269.323 121.621C271.13 122.286 273.657 123.583 274.947 124.509L277.286 126.184C283.933 124.116 287.604 123.424 289.727 123.308C293.503 123.097 293.584 123.062 293.627 121.635C293.646 120.834 293.908 120.066 294.204 119.926C294.506 119.787 294.722 120.383 294.696 121.269C294.669 122.144 294.828 122.871 295.045 122.889C295.263 122.9 295.818 122.29 296.281 121.529C296.745 120.762 298.592 118.869 300.391 117.319C302.191 115.769 305.12 113.76 306.9 112.852C308.68 111.944 312.187 110.653 314.687 109.979C317.188 109.306 321.877 108.448 325.102 108.072C328.321 107.697 331.032 107.355 331.137 107.309C331.228 107.268 331.187 106.693 331.043 106.031C330.856 105.187 330.03 104.54 328.282 103.866C326.592 103.215 324.931 102.973 323.126 103.126C321.662 103.247 315.813 105.02 310.127 107.074C304.442 109.123 299.315 110.785 298.729 110.768C298.146 110.75 297.443 110.25 297.169 109.658C296.895 109.066 296.693 108.045 296.718 107.388C296.743 106.73 297.267 105.194 297.883 103.97C298.651 102.443 299.637 101.453 301.021 100.809C302.131 100.295 305.693 99.1115 308.934 98.1789C312.175 97.2515 316.152 96.2349 317.766 95.9221C319.379 95.6097 321.538 95.5313 322.552 95.737C323.565 95.9482 325.571 96.9166 327.001 97.8943C328.432 98.8666 329.476 99.3178 329.319 98.8991C329.161 98.4791 327.965 94.6565 326.653 90.4059L324.273 82.6803C316.812 74.1545 312.985 69.4762 310.958 66.7861C308.936 64.0964 306.486 61.149 305.515 60.2326C304.544 59.3164 301.997 57.4553 299.845 56.0894C297.672 54.7122 293.628 52.8323 290.731 51.8474C287.866 50.8797 285.451 49.7875 285.36 49.4181C285.256 49.0008 285.741 48.7711 286.653 48.7985C287.454 48.8281 289.651 49.2659 291.537 49.7741C293.423 50.2824 296.845 51.6498 299.146 52.813C301.448 53.9763 304.501 55.7677 305.931 56.7934C307.849 58.1788 308.264 58.3449 307.505 57.4299C306.941 56.7487 304.961 55.1066 303.101 53.7762C301.239 52.4456 298.304 50.8068 296.572 50.1279C294.839 49.4543 291.163 48.6043 288.396 48.2501C285.629 47.896 282.782 47.3538 282.058 47.0452C281.314 46.7251 280.397 45.6142 279.938 44.4695C279.487 43.3617 278.195 40.757 277.063 38.6782ZM261.795 134.762C261.556 135.992 261.408 137.034 261.459 137.084C261.515 137.132 262.352 136.796 263.32 136.343L265.086 135.515L262.224 132.529L261.795 134.762ZM222.281 132.208C222.013 132.083 221.025 132.276 220.085 132.641C218.973 133.08 218.419 133.637 218.491 134.245C218.555 134.794 219.141 135.257 219.918 135.366C220.642 135.472 221.552 135.261 221.94 134.896C222.333 134.536 222.673 133.834 222.709 133.341C222.739 132.849 222.548 132.338 222.281 132.208ZM251.794 131.226C251.309 131.116 250.71 131.417 250.456 131.892C250.156 132.471 250.265 132.916 250.784 133.225C251.217 133.482 251.884 133.54 252.277 133.355C252.665 133.175 252.914 132.662 252.831 132.225C252.749 131.787 252.285 131.332 251.794 131.226ZM336.32 123.585C336.177 123.581 336.048 123.634 336.034 123.708C336.027 123.782 336.3 124.604 336.644 125.538C336.993 126.472 338.15 127.883 339.221 128.67C340.291 129.461 341.169 129.923 341.171 129.705C341.171 129.486 340.608 128.275 339.924 127.012C339.24 125.749 338.205 124.464 337.63 124.155C337.056 123.846 336.464 123.59 336.32 123.585ZM253.994 105.958C257.217 105.651 261.639 105.561 263.826 105.759C266.569 106.007 268.198 106.439 269.095 107.145C269.811 107.709 270.702 108.989 271.081 109.993C271.676 111.573 271.653 111.987 270.939 113.117C270.203 114.269 269.517 114.483 265.095 114.934C262.336 115.217 255.898 115.565 250.78 115.708C245.666 115.846 239.921 116.168 238.011 116.413C236.103 116.664 233.212 117.405 231.587 118.073C229.963 118.736 226.673 120.75 224.282 122.548C221.891 124.345 219.883 125.597 219.817 125.335C219.751 125.066 220.317 123.735 221.074 122.372C221.832 121.009 223.392 118.804 224.542 117.468C225.692 116.138 228.22 113.85 230.165 112.384C232.11 110.924 234.666 109.333 235.849 108.858C237.033 108.379 240.278 107.654 243.068 107.255C245.858 106.85 250.772 106.264 253.994 105.958ZM208.886 104.876C208.779 104.875 207.494 106.45 206.035 108.375C204.569 110.301 200.906 114.302 197.891 117.26C193.299 121.774 192.84 122.361 195.05 120.893C196.497 119.933 199.136 117.696 200.91 115.922C202.679 114.149 204.964 111.471 205.981 109.967C206.998 108.463 208.109 106.706 208.452 106.058C208.794 105.412 208.985 104.883 208.886 104.876ZM317.653 121.211C317.366 121.049 316.68 121.236 316.121 121.627C315.324 122.198 315.24 122.493 315.732 123.06C316.097 123.479 316.703 123.62 317.182 123.406C317.64 123.202 318.049 122.688 318.088 122.27C318.132 121.852 317.934 121.374 317.653 121.211ZM349.136 113.348C348.569 113.331 347.962 113.552 347.794 113.839C347.626 114.126 347.596 114.725 347.727 115.165C347.857 115.604 348.149 115.979 348.366 115.991C348.584 116.002 349.23 115.719 349.793 115.369C350.36 115.015 350.675 114.424 350.496 114.052C350.315 113.681 349.704 113.365 349.136 113.348ZM255.099 51.6139C254.806 51.616 253.36 52.008 251.886 52.4785C250.411 52.9494 247.022 54.3724 244.355 55.641C241.688 56.9045 237.671 59.4015 235.424 61.1873C233.182 62.9681 229.93 66.0524 228.197 68.0344C226.47 70.0161 225.04 71.8155 225.023 72.0335C225.011 72.2505 226.933 70.5188 229.303 68.1791C231.673 65.8393 235.654 62.5542 238.147 60.8765C240.641 59.1989 245.596 56.4269 249.152 54.7176C252.712 53.0043 255.387 51.6086 255.099 51.6139Z" fill="#274689"/>
</svg>
